:FULLY-SPECIFIED
:FORCE-ALL-JOINTS-BE-3DOF
:DEGREES
951
root 1.09558 15.273 32.7416 6.85136 -3.2045 4.38851
lfemur 7.13874 1.05644 4.64597
ltibia 0.109592 -0 0
lfoot -28.6575 -13.5723 -0.00204352
ltoes -32.3637 0 0
rfemur -31.9916 -16.1673 -6.65016
rtibia 49.5891 -0 0
rfoot -21.2818 4.42575 -0.00226949
rtoes -42.2406 0 0
lowerback -2.38792 -0.795434 1.13563
upperback -1.21625 -1.07834 -6.64178
thorax -0.0670691 -0.574189 -7.59343
lowerneck -6.28408 1.06698 5.19179
upperneck 0.638306 0.950483 3.1318
head 1.26275 0.552955 0.1307
lclavicle -0 0 0
lhumerus -59.1785 -43.5911 112.598
lradius 55.4041 -0 0
lwrist 26.1377 0 0
lhand 39.164 24.2238 0.00195714
lfingers 0 -0 0
lthumb 61.6948 36.0635 -0.00414955
rclavicle -0 0 0
rhumerus 3.31 -29.1053 0.995955
rradius 29.069 -0 0
rwrist -11.5311 0 0
rhand -34.6987 -50.3425 0.000184494
rfingers 0 -0 0
rthumb -7.85274 -80.147 -0.00456536
952
root 1.07655 15.2629 32.7359 6.83888 -3.31291 4.27925
lfemur 7.26712 1.1538 4.83135
ltibia 0.054796 -0 0
lfoot -28.7409 -13.2913 -0.0012261
ltoes -32.6332 0 0
rfemur -32.1812 -16.2867 -6.41018
rtibia 49.8056 -0 0
rfoot -21.5197 4.53507 -0.00136169
rtoes -42.1301 0 0
lowerback -2.39655 -0.878807 1.23703
upperback -1.153 -1.18929 -6.5683
thorax -0.0124737 -0.62808 -7.57568
lowerneck -6.20084 1.20992 5.39232
upperneck 0.532549 1.13709 3.08353
head 1.21688 0.642129 0.0875534
lclavicle -0 0 0
lhumerus -59.1699 -43.526 112.619
lradius 55.3547 -0 0
lwrist 26.3291 0 0
lhand 38.8878 24.1426 0.00117428
lfingers 0 -0 0
lthumb 61.4648 36.2701 -0.00248971
rclavicle -0 0 0
rhumerus 3.37643 -27.6793 1.74388
rradius 29.0477 -0 0
rwrist -10.5165 0 0
rhand -33.5693 -50.3407 0.000110682
rfingers 0 -0 0
rthumb -6.76317 -80.195 -0.00273889
953
root 1.05753 15.2529 32.7303 6.8266 -3.42135 364.17
lfemur 7.39583 1.25075 5.01695
ltibia 0 0 0
lfoot -28.8242 -13.0103 0
ltoes -32.9027 0 0
rfemur -32.3714 -16.4053 -6.16964
rtibia 50.0221 0 0
rfoot -21.7576 4.64439 0
rtoes -42.0196 0 0
lowerback -2.40532 -0.962165 1.33844
upperback -1.08989 -1.30032 -6.49494
thorax 0.0421056 -0.681987 -7.55798
lowerneck -6.1171 1.35257 5.59306
upperneck 0.426627 1.3236 3.03492
head 1.17095 0.731268 0.0443343
lclavicle -2.98177e-16 -1.43125e-14 0
lhumerus -59.1613 -43.4609 112.641
lradius 55.3053 0 0
lwrist 26.5206 0 0
lhand 38.6117 24.0614 0
lfingers 7.12502 0 0
lthumb 61.2347 36.4768 0
rclavicle -2.98177e-16 -1.43125e-14 0
rhumerus 3.46276 -26.2543 2.48423
rradius 29.0263 0 0
rwrist -9.50186 0 0
rhand -32.44 -50.3388 0
rfingers 7.12502 0 0
rthumb -5.6736 -800.243 0
954
root 1.05148 15.2423 32.7206 6.73625 -3.6865 4.17716
lfemur 7.60409 1.44757 5.03498
ltibia 0 -0 0
lfoot -28.9181 -12.9296 -0.000396951
ltoes -32.9521 0 0
rfemur -32.5671 -16.379 -6.12954
rtibia 50.199 -0 0
rfoot -21.9179 4.83454 -0.00159619
rtoes -41.9611 0 0
lowerback -2.30121 -0.94182 1.25154
upperback -1.0884 -1.27356 -6.46093
thorax -0.00845003 -0.669207 -7.46841
lowerneck -6.08934 1.35595 5.62031
upperneck 0.434771 1.32609 3.10377
head 1.16841 0.733666 0.0611601
lclavicle -0 0 0
lhumerus -59.1682 -43.6174 112.861
lradius 55.2926 -0 0
lwrist 26.1855 0 0
lhand 38.6519 23.9112 -0.000316234
lfingers 0 -0 0
lthumb 61.2685 36.2868 -0.000336541
rclavicle -0 0 0
rhumerus 3.73443 -26.2214 2.29722
rradius 28.9768 -0 0
rwrist -10.1033 0 0
rhand -32.5193 -50.0346 -0.00126361
rfingers 0 -0 0
rthumb -5.75017 -79.9366 -0.00122871
955
root 1.04543 15.2316 32.711 6.64585 -3.95164 4.18474
lfemur 7.81244 1.64432 5.05373
ltibia 0 -0 0
lfoot -29.0121 -12.8489 -0.000661586
ltoes -33.0016 0 0
rfemur -32.7628 -16.3526 -6.08955
rtibia 50.3759 -0 0
rfoot -22.0782 5.0247 -0.00266033
rtoes -41.9025 0 0
lowerback -2.19712 -0.921318 1.16468
upperback -1.08689 -1.2468 -6.42691
thorax -0.0589855 -0.656347 -7.37886
lowerneck -6.06157 1.35932 5.64756
upperneck 0.442919 1.32857 3.17262
head 1.16587 0.736064 0.0779858
lclavicle -0 0 0
lhumerus -59.1759 -43.774 113.082
lradius 55.2799 -0 0
lwrist 25.8505 0 0
lhand 38.6921 23.761 -0.000527059
lfingers 0 -0 0
lthumb 61.3024 36.0968 -0.000560904
rclavicle -0 0 0
rhumerus 4.00591 -26.1878 2.11043
rradius 28.9274 -0 0
rwrist -10.7047 0 0
rhand -32.5987 -49.7304 -0.00210604
rfingers 0 -0 0
rthumb -5.82675 -79.6301 -0.00204787
956
root 1.03938 15.221 32.7013 6.55538 -4.21677 4.19275
lfemur 8.02087 1.84101 5.0732
ltibia 0 -0 0
lfoot -29.106 -12.7682 -0.000793904
ltoes -33.051 0 0
rfemur -32.9584 -16.326 -6.04965
rtibia 50.5528 -0 0
rfoot -22.2385 5.21486 -0.00319241
rtoes -41.844 0 0
lowerback -2.09307 -0.900658 1.07785
upperback -1.08537 -1.22004 -6.3929
thorax -0.109501 -0.643409 -7.28932
lowerneck -6.0338 1.36268 5.67481
upperneck 0.451069 1.33104 3.24147
head 1.16333 0.738464 0.0948115
lclavicle -0 0 0
lhumerus -59.1844 -43.9305 113.303
lradius 55.2672 -0 0
lwrist 25.5154 0 0
lhand 38.7323 23.6108 -0.000632471
lfingers 0 -0 0
lthumb 61.3362 35.9068 -0.000673086
rclavicle -0 0 0
rhumerus 4.27718 -26.1533 1.92388
rradius 28.8779 -0 0
rwrist -11.3061 0 0
rhand -32.678 -49.4262 -0.00252727
rfingers 0 -0 0
rthumb -5.90334 -79.3237 -0.00245746
957
root 1.03333 15.2104 32.6917 6.46484 -4.48189 4.20117
lfemur 8.22939 2.03762 5.09338
ltibia 0 -0 0
lfoot -29.2 -12.6875 -0.000793904
ltoes -33.1005 0 0
rfemur -33.154 -16.2993 -6.00985
rtibia 50.7296 -0 0
rfoot -22.3989 5.40501 -0.00319241
rtoes -41.7855 0 0
lowerback -1.98905 -0.87984 0.991063
upperback -1.08383 -1.19329 -6.35889
thorax -0.159995 -0.630392 -7.19978
lowerneck -6.00604 1.36602 5.70207
upperneck 0.459222 1.3335 3.31032
head 1.16079 0.740864 0.111637
lclavicle -0 0 0
lhumerus -59.1939 -44.0869 113.525
lradius 55.2544 -0 0
lwrist 25.1804 0 0
lhand 38.7726 23.4607 -0.000632471
lfingers 0 -0 0
lthumb 61.37 35.7168 -0.000673086
rclavicle -0 0 0
rhumerus 4.54825 -26.1181 1.73757
rradius 28.8285 -0 0
rwrist -11.9075 0 0
rhand -32.7573 -49.1219 -0.00252727
rfingers 0 -0 0
rthumb -5.97992 -79.0173 -0.00245746
958
root 1.02728 15.1998 32.682 6.37422 -4.74699 4.21003
lfemur 8.43801 2.23416 5.11429
ltibia 0 -0 0
lfoot -29.2939 -12.6068 -0.000661586
ltoes -33.1499 0 0
rfemur -33.3496 -16.2725 -5.97015
rtibia 50.9065 -0 0
rfoot -22.5592 5.59517 -0.00266033
rtoes -41.727 0 0
lowerback -1.88507 -0.858865 0.904314
upperback -1.08228 -1.16653 -6.32487
thorax -0.21047 -0.617296 -7.11026
lowerneck -5.97827 1.36935 5.72932
upperneck 0.467379 1.33595 3.37918
head 1.15825 0.743264 0.128462
lclavicle -0 0 0
lhumerus -59.2042 -44.2434 113.748
lradius 55.2417 -0 0
lwrist 24.8453 0 0
lhand 38.8128 23.3105 -0.000527059
lfingers 0 -0 0
lthumb 61.4038 35.5268 -0.000560904
rclavicle -0 0 0
rhumerus 4.8191 -26.082 1.55151
rradius 28.779 -0 0
rwrist -12.5089 0 0
rhand -32.8366 -48.8177 -0.00210604
rfingers 0 -0 0
rthumb -6.05651 -78.7109 -0.00204787
959
root 1.02123 15.1891 32.6724 6.28353 -5.01208 4.2193
lfemur 8.64673 2.43062 5.13591
ltibia 0 -0 0
lfoot -29.3879 -12.5261 -0.000396951
ltoes -33.1994 0 0
rfemur -33.5451 -16.2456 -5.93056
rtibia 51.0834 -0 0
rfoot -22.7195 5.78533 -0.00159619
rtoes -41.6684 0 0
lowerback -1.78111 -0.837732 0.817603
upperback -1.08071 -1.13977 -6.29086
thorax -0.260923 -0.604121 -7.02076
lowerneck -5.95049 1.37267 5.75658
upperneck 0.475538 1.33839 3.44803
head 1.15572 0.745666 0.145288
lclavicle -0 0 0
lhumerus -59.2153 -44.3998 113.971
lradius 55.229 -0 0
lwrist 24.5103 0 0
lhand 38.853 23.1603 -0.000316234
lfingers 0 -0 0
lthumb 61.4377 35.3368 -0.000336541
rclavicle -0 0 0
rhumerus 5.08974 -26.0452 1.36569
rradius 28.7296 -0 0
rwrist -13.1103 0 0
rhand -32.916 -48.5135 -0.00126361
rfingers 0 -0 0
rthumb -6.13309 -78.4044 -0.00122871
960
root 1.01518 15.1785 32.6627 6.19276 -5.27715 364.229
lfemur 8.85555 2.627 5.15825
ltibia 1.90833e-14 0 0
lfoot -29.4818 -12.4454 0
ltoes -33.2488 0 0
rfemur -33.7405 -16.2185 -5.89106
rtibia 51.2603 0 0
rfoot -22.8798 5.97548 0
rtoes -41.6099 0 0
lowerback -1.67719 -0.816442 0.730932
upperback -1.07912 -1.11302 -6.25684
thorax -0.311356 -0.590867 -6.93126
lowerneck -5.92272 1.37597 5.78384
upperneck 0.4837 1.34082 3.51688
head 1.15318 0.748068 0.162113
lclavicle -2.3556e-14 -7.95139e-14 0
lhumerus -59.2274 -44.5562 114.195
lradius 55.2163 0 0
lwrist 24.1752 0 0
lhand 38.8932 23.0101 0
lfingers 7.12502 0 0
lthumb 61.4715 35.1468 0
rclavicle -2.3556e-14 -7.95139e-14 0
rhumerus 5.36016 -26.0076 1.18013
rradius 28.6801 0 0
rwrist -13.7117 0 0
rhand -32.9953 -48.2093 0
rfingers 7.12502 0 0
rthumb -6.20966 -798.098 0
